<?xml version="1.0" encoding="utf-8"?>
<!-- Generator: Adobe Illustrator 19.0.0, SVG Export Plug-In . SVG Version: 6.00 Build 0)  -->
<svg version="1.1" id="Layer_1" xmlns="http://www.w3.org/2000/svg" xmlns:xlink="http://www.w3.org/1999/xlink" x="0px" y="0px"
	 viewBox="0 0 942.9 1132" style="enable-background:new 0 0 942.9 1132;" xml:space="preserve">
<style type="text/css">
	.st0{fill:#FFFFFF;}
</style>
<path id="XMLID_947_" class="st0" d="M397,1046c-0.2,0-0.3-0.3-0.5-0.3c-6.8-0.1-13.4-3.7-17.1-10L113.1,576.9
	c-0.8-1.3-1.3-2.7-1.8-4c-2.2-5.5-2-12,1.2-17.5L376.9,95.8c1.9-3.3,4.7-5.9,7.8-7.6c0,0,0,0,0.1,0c0.5-0.3,1-0.5,1.4-0.7
	c0.2-0.1,0.3-0.1,0.5-0.2c0.4-0.2,0.7-0.3,1.1-0.4c0.3-0.1,0.6-0.2,0.8-0.3c0.3-0.1,0.6-0.2,0.9-0.2c0.3-0.1,0.7-0.2,1-0.2
	c0.3-0.1,0.6-0.1,0.9-0.1c0.4,0,0.7-0.1,1.1-0.2c0.3,0,0.7,0.1,1,0.1c0.2,0,0.5,0.1,0.7,0.1h375.4c11,0,20,9,20,20s-9,20-20,20
	H405.8l-253,439.9L408.3,1006h465.1L739.5,763H542.4L425.2,565.4L542.4,369h197.1l55.7-101H469.7L296.1,569.8L467.5,865h224.3
	c11,0,20,9,20,20s-9,20-20,20H457.3c-0.8,0-1.5-0.3-2.3-0.4c-6.6-0.3-12.8-4-16.4-10L255.9,579.9c-0.7-1.3-1.3-2.7-1.8-4
	c-1.8-5.3-1.5-11.3,1.5-16.5l184.8-321.3c0.1-0.1,0.1-0.2,0.2-0.3l0.1-0.2c0-0.1,0.1-0.1,0.1-0.2c0.3-0.4,0.5-0.9,0.8-1.3
	c0.2-0.2,0.3-0.4,0.5-0.6c0.2-0.3,0.4-0.6,0.7-0.8c0.2-0.3,0.5-0.5,0.7-0.8c0.2-0.2,0.4-0.4,0.6-0.6c0.3-0.3,0.5-0.5,0.8-0.7
	c0.2-0.2,0.4-0.4,0.7-0.6c0.3-0.2,0.5-0.4,0.8-0.6c0.3-0.2,0.6-0.4,0.9-0.6c0.2-0.1,0.4-0.3,0.6-0.4c0.4-0.2,0.8-0.4,1.2-0.6
	c0.1-0.1,0.3-0.1,0.4-0.2c0.5-0.2,0.9-0.4,1.4-0.6c0.1,0,0.2-0.1,0.3-0.1c0.5-0.2,1-0.4,1.6-0.5c0.1,0,0.2,0,0.2-0.1
	c0.5-0.1,1-0.3,1.6-0.3c0.1,0,0.3,0,0.4-0.1c0.5-0.1,0.9-0.1,1.4-0.2c0.3,0,0.6,0.2,0.8,0.2c0.3,0,0.5,0.2,0.8,0.2h359.1L942.9,0
	H328.5L0,566.5L328.5,1132h614.4l-47.4-86H397z"/>
</svg>
