<svg width="19" height="13" viewBox="0 0 19 13" version="1.1" xmlns="http://www.w3.org/2000/svg" xmlns:xlink="http://www.w3.org/1999/xlink">
<title>Group</title>
<desc>Created using Figma</desc>
<g id="Canvas" transform="translate(-5304 -403)">
<g id="Group">
<g id="Vector">
<use xlink:href="#path0_fill" transform="translate(5304.43 410.129)" fill="#0D47A1"/>
</g>
<g id="Vector">
<use xlink:href="#path1_fill" transform="translate(5304.43 403)" fill="#0D47A1"/>
</g>
<g id="Vector">
<use xlink:href="#path2_fill" transform="translate(5304 404.141)" fill="#0D47A1"/>
</g>
<g id="Vector">
<use xlink:href="#path3_fill" transform="translate(5316.44 404.138)" fill="#0D47A1"/>
</g>
</g>
</g>
<defs>
<path id="path0_fill" d="M 9.07103 1.97084L 6.72048 2.67797e-07L 1.97374e-08 5.51861C 0.244283 5.73571 0.574064 5.87091 0.937774 5.87091L 17.2043 5.87091C 17.5666 5.87091 17.8951 5.73571 18.138 5.51861L 11.4216 2.67797e-07L 9.07103 1.97084Z"/>
<path id="path1_fill" d="M 18.1393 0.352307C 17.8951 0.133902 17.5666 0 17.2016 0L 0.935059 0C 0.572707 0 0.244283 0.135203 -1.52075e-08 0.354907L 9.06831 7.80015L 18.1393 0.352307Z"/>
<path id="path2_fill" d="M 0 2.72756e-08L 0 10.8006L 6.55899 5.46141L 0 2.72756e-08Z"/>
<path id="path3_fill" d="M -2.48497e-07 5.46531L 6.55899 10.8045L 6.55899 0L -2.48497e-07 5.46531Z"/>
</defs>
</svg>
