<?xml version="1.0" encoding="utf-8"?>
<!-- Generator: Adobe Illustrator 19.0.0, SVG Export Plug-In . SVG Version: 6.00 Build 0)  -->
<svg version="1.1" id="Layer_1" xmlns="http://www.w3.org/2000/svg" xmlns:xlink="http://www.w3.org/1999/xlink" x="0px" y="0px"
	 viewBox="92 -429.7 1143.5 1418.7" style="enable-background:new 92 -429.7 1143.5 1418.7;" xml:space="preserve">
<style type="text/css">
	.st0{fill:#FFFFFF;}
</style>
<path class="st0" d="M849.5,363.5v385.1H158.7v-959.5h690.8v149.7h66.7v-272.7c0-52.7-43.2-95.8-95.9-95.8H187.8
	c-52.7,0-95.8,43.1-95.8,95.8V893.2c0,52.7,43.1,95.9,95.8,95.9h632.5c52.7,0,95.8-43,95.8-95.8V363.5H849.5z M616.9,877.8
	c0,7.4-6.1,13.5-13.5,13.5H404.8c-7.4,0-13.5-6.1-13.5-13.5v-15c0-7.4,6.1-13.5,13.5-13.5h198.6c7.4,0,13.5,6.1,13.5,13.5V877.8z"/>
<path class="st0" d="M764.3,551c-4.9,0-9.9-1.1-14.6-3.3c-15.1-7.1-22.9-24-18.4-40.2c11.3-41,10.4-79.3-2.5-114h-72.1
	c-34,0-61.6-27.6-61.6-61.6v-347c0-34,27.6-61.6,61.6-61.6h517.2c34,0,61.6,27.6,61.6,61.6v347c0,34-27.6,61.6-61.6,61.6H879.4
	c-23.5,45.3-64.3,110-87.2,142.8C785.6,545.8,775.1,551,764.3,551z M656.7-16.5L655.2,332l111.7,1.5l8.3,16.6
	c10.9,21.6,18,44.2,21.5,67.6c14.9-24.9,28.5-49.3,36.7-66.8l8.1-17.4h332.3l1.5-348.5l-1.5-1.5L656.7-16.5L656.7-16.5z"/>
<path class="st0" d="M1009.2,214.7l-17-17c-5.7-5.7-8.9-13.4-8.9-21.4v-53.2c0-32.7-22.3-61.6-53.2-68.7c0.1-0.6,0.2-1.2,0.2-1.8
	c0-8.3-6.8-15.1-15.1-15.1s-15.1,6.8-15.1,15.1c0,0.6,0.1,1.2,0.2,1.7c-30.4,6.8-53.2,33.9-53.2,66.4v55.6c0,8-3.2,15.7-8.9,21.4
	l-17,17c-2.8,2.8-4.4,6.7-4.4,10.7l0,0c0,9.1,7.4,16.4,16.4,16.4H885v7.6c0,16.7,13.6,30.3,30.3,30.3s30.3-13.6,30.3-30.3v-7.6h51.7
	c9.1,0,16.4-7.4,16.4-16.4l0,0C1013.7,221.4,1012.1,217.5,1009.2,214.7L1009.2,214.7z"/>
</svg>
