<?xml version="1.0" encoding="utf-8"?>
<!-- Generator: Adobe Illustrator 19.0.0, SVG Export Plug-In . SVG Version: 6.00 Build 0)  -->
<svg version="1.1" id="Capa_1" xmlns="http://www.w3.org/2000/svg" xmlns:xlink="http://www.w3.org/1999/xlink" x="0px" y="0px"
	 viewBox="-1569.9 -791.9 2504.3 2165" style="enable-background:new -1569.9 -791.9 2504.3 2165;" xml:space="preserve">
<style type="text/css">
	.st0{fill:#FCFCFC;}
</style>
<g>
	<path class="st0" d="M-1569.9,1030.6l147.4-147.4c61-61.1,104-193,121.8-372.9C-1393.9,375.2-1443,220.1-1443,60.1
		c0-469.8,422.7-852,942.2-852s942.2,382.2,942.2,852s-422.7,852-942.2,852c-126.8,0-249.5-22.4-365.3-66.5
		c-209.7,114.7-485.3,154.4-497.4,156.1L-1569.9,1030.6z M-500.7-652.3c-442.6,0-802.6,319.6-802.6,712.4
		c0,138.8,45.2,273.4,130.7,389.3l15.6,21.1l-2.2,26.1c-11.4,135.7-35,247.8-70.5,335.5c97.4-24.3,223.4-64,322.3-123.7l30.4-18.4
		l32.8,13.8c108,45.5,223.6,68.6,343.6,68.6c442.6,0,802.6-319.6,802.6-712.4C301.9-332.7-58.2-652.3-500.7-652.3z"/>
	<path class="st0" d="M934.4,500.7c0-358.2-268.7-660-635.1-752.7c46.5,95.6,72.4,201.1,72.4,312.1c0,432-390.6,782.2-872.4,782.2
		c-82.3,0-161.8-10.3-237.3-29.4c134.5,276.6,442,470,800,470c132.6,0,258.2-26.7,370.7-74.1c202.6,122.4,501.7,164.3,501.7,164.3
		c-97.9-97.9-132.3-299-144.3-441.7C881.2,807.9,934.4,659.9,934.4,500.7z"/>
</g>
</svg>
