<?xml version="1.0" encoding="utf-8"?>
<!-- Generator: Adobe Illustrator 19.0.0, SVG Export Plug-In . SVG Version: 6.00 Build 0)  -->
<svg version="1.1" id="Layer_1" xmlns="http://www.w3.org/2000/svg" xmlns:xlink="http://www.w3.org/1999/xlink" x="0px" y="0px"
	 viewBox="0 0 2138 2652.7" style="enable-background:new 0 0 2138 2652.7;" xml:space="preserve">
<style type="text/css">
	.st0{fill:#0D47A1;}
	.st1{fill:#0D46A0;}
</style>
<path class="st0" d="M1416.3,1483.1v720H124.7v-1794h1291.6v279.9H1541V179.2C1541,80.6,1460.3,0,1361.8,0H179.2
	C80.6,0,0,80.6,0,179.2v2294.3c0,98.6,80.6,179.2,179.2,179.2h1182.6c98.5,0,179.2-80.5,179.2-179.2v-990.4H1416.3z M981.3,2444.8
	c0,13.9-11.3,25.2-25.2,25.2H584.8c-13.9,0-25.2-11.3-25.2-25.2v-28c0-13.9,11.3-25.2,25.2-25.2h371.3c13.9,0,25.2,11.3,25.2,25.2
	V2444.8z"/>
<path class="st1" d="M1256.9,1833.6c-9.2,0-18.4-2-27.2-6.1c-28.3-13.3-42.8-44.9-34.5-75.1c21.1-76.7,19.5-148.3-4.7-213.1h-134.8
	c-63.5,0-115.2-51.7-115.2-115.2V775.3c0-63.5,51.7-115.2,115.2-115.2h967c63.5,0,115.2,51.7,115.2,115.2v648.9
	c0,63.5-51.7,115.2-115.2,115.2h-550.6c-44,84.7-120.3,205.6-163.1,267C1296.9,1823.9,1277.2,1833.6,1256.9,1833.6z M1055.8,772.5
	l-2.7,651.6l208.9,2.7l15.6,31c20.3,40.4,33.7,82.6,40.3,126.4c27.8-46.5,53.4-92.1,68.6-124.8l15.1-32.5h621.3l2.7-651.6l-2.7-2.7
	H1055.8z"/>
<path class="st0" d="M1715,1204.8l-31.7-31.7c-10.6-10.6-16.6-25-16.6-40v-99.6c0-61.1-41.6-115.1-99.4-128.5
	c0.1-1.1,0.3-2.2,0.3-3.3c0-15.6-12.7-28.3-28.3-28.3c-15.6,0-28.3,12.7-28.3,28.3c0,1.1,0.2,2.2,0.3,3.2
	c-56.9,12.8-99.4,63.4-99.4,124.2v103.9c0,15-6,29.4-16.6,40l-31.7,31.7c-5.3,5.3-8.3,12.5-8.3,20v0c0,17,13.8,30.7,30.7,30.7h96.7
	v14.2c0,31.3,25.3,56.6,56.6,56.6c31.3,0,56.6-25.3,56.6-56.6v-14.2h96.7c17,0,30.7-13.8,30.7-30.7v0
	C1723.3,1217.3,1720.3,1210.1,1715,1204.8L1715,1204.8z"/>
</svg>
